<?xml version="1.0" encoding="UTF-8"?>
<svg width="81px" height="24px" viewBox="0 0 81 24" version="1.1" xmlns="http://www.w3.org/2000/svg" xmlns:xlink="http://www.w3.org/1999/xlink">
    <title>Group 3</title>
    <g id="Logo" stroke="none" stroke-width="1" fill="none" fill-rule="evenodd">
        <g id="A4-Copy-4" transform="translate(-429.000000, -265.000000)">
            <g id="Group-3" transform="translate(429.689633, 265.605568)">
                <path d="M17.4095771,13.0041805 L17.8216601,22.6622833 L9.16619037,17.4932162 L17.4095771,13.0041805 Z M6.40355287,13.1822937 L4.8885821,19.8154277 L-3.27737837e-13,14.7693265 L6.40355287,13.1822937 Z M5.55414003,1.02095165 L17.3691512,3.84199705 L9.40218144,13.4871937 L5.55414003,1.02095165 Z" id="Combined-Shape" fill="#0D6EFD"></path>
                <g id="ojeda-3" transform="translate(22.749820, 0.000000)" fill="#212529" fill-rule="nonzero">
                    <path d="M5.90625,18.234375 C7.078125,18.234375 8.11132812,17.9648438 9.00585938,17.4257812 C9.90039062,16.8867188 10.5878906,16.125 11.0683594,15.140625 C11.5488281,14.15625 11.7890625,13.0390625 11.7890625,11.7890625 L11.7890625,11.7890625 L11.7773438,11.1210938 C11.6914062,9.30078125 11.1152344,7.83984375 10.0488281,6.73828125 C8.98242188,5.63671875 7.59375,5.0859375 5.8828125,5.0859375 C4.7265625,5.0859375 3.703125,5.35351562 2.8125,5.88867188 C1.921875,6.42382812 1.23046875,7.18945312 0.73828125,8.18554688 C0.24609375,9.18164062 0,10.3007812 0,11.5429688 L0,11.5429688 L0,11.6835938 C0,13.6679688 0.537109375,15.2558594 1.61132812,16.4472656 C2.68554688,17.6386719 4.1171875,18.234375 5.90625,18.234375 Z M5.90625,15.9609375 C4.9453125,15.9609375 4.1953125,15.5917969 3.65625,14.8535156 C3.1171875,14.1152344 2.84765625,13.09375 2.84765625,11.7890625 C2.84765625,10.3203125 3.12109375,9.21679688 3.66796875,8.47851562 C4.21484375,7.74023438 4.953125,7.37109375 5.8828125,7.37109375 C6.828125,7.37109375 7.57617188,7.74609375 8.12695312,8.49609375 C8.67773438,9.24609375 8.953125,10.2617188 8.953125,11.5429688 C8.953125,12.9882812 8.68554688,14.0859375 8.15039062,14.8359375 C7.61523438,15.5859375 6.8671875,15.9609375 5.90625,15.9609375 Z M15.6796875,3.52734375 C16.1953125,3.52734375 16.59375,3.38476562 16.875,3.09960938 C17.15625,2.81445312 17.296875,2.45703125 17.296875,2.02734375 C17.296875,1.58984375 17.15625,1.2265625 16.875,0.9375 C16.59375,0.6484375 16.1953125,0.50390625 15.6796875,0.50390625 C15.1640625,0.50390625 14.7675781,0.6484375 14.4902344,0.9375 C14.2128906,1.2265625 14.0742188,1.58984375 14.0742188,2.02734375 C14.0742188,2.45703125 14.2128906,2.81445312 14.4902344,3.09960938 C14.7675781,3.38476562 15.1640625,3.52734375 15.6796875,3.52734375 Z M13.3710938,23.1210938 C14.6132812,23.1210938 15.5566406,22.7792969 16.2011719,22.0957031 C16.8457031,21.4121094 17.1679688,20.421875 17.1679688,19.125 L17.1679688,19.125 L17.1679688,5.3203125 L14.3203125,5.3203125 L14.3203125,19.2304688 C14.296875,20.2617188 13.8125,20.7773438 12.8671875,20.7773438 C12.4921875,20.7773438 12.15625,20.7421875 11.859375,20.671875 L11.859375,20.671875 L11.859375,22.921875 C12.34375,23.0546875 12.8476562,23.1210938 13.3710938,23.1210938 Z M25.7929688,18.234375 C26.8476562,18.234375 27.7988281,18.0253906 28.6464844,17.6074219 C29.4941406,17.1894531 30.171875,16.6015625 30.6796875,15.84375 L30.6796875,15.84375 L29.1445312,14.3789062 C28.3242188,15.4335938 27.2617188,15.9609375 25.9570312,15.9609375 C25.0273438,15.9609375 24.2558594,15.65625 23.6425781,15.046875 C23.0292969,14.4375 22.6796875,13.609375 22.59375,12.5625 L22.59375,12.5625 L30.8789062,12.5625 L30.8789062,11.4140625 C30.8789062,9.3984375 30.4082031,7.83984375 29.4667969,6.73828125 C28.5253906,5.63671875 27.1914062,5.0859375 25.4648438,5.0859375 C24.3789062,5.0859375 23.3945312,5.36328125 22.5117188,5.91796875 C21.6289062,6.47265625 20.9433594,7.24804688 20.4550781,8.24414062 C19.9667969,9.24023438 19.7226562,10.3710938 19.7226562,11.6367188 L19.7226562,11.6367188 L19.7226562,11.9882812 C19.7226562,13.8789062 20.2832031,15.3925781 21.4042969,16.5292969 C22.5253906,17.6660156 23.9882812,18.234375 25.7929688,18.234375 Z M28.0664062,10.4765625 L22.640625,10.4765625 C22.7734375,9.5 23.0800781,8.73828125 23.5605469,8.19140625 C24.0410156,7.64453125 24.671875,7.37109375 25.453125,7.37109375 C26.2421875,7.37109375 26.859375,7.61523438 27.3046875,8.10351562 C27.75,8.59179688 28.0039062,9.3125 28.0664062,10.265625 L28.0664062,10.265625 L28.0664062,10.4765625 Z M37.5351562,18.234375 C38.9570312,18.234375 40.09375,17.71875 40.9453125,16.6875 L40.9453125,16.6875 L41.0859375,18 L43.6640625,18 L43.6640625,0 L40.8164062,0 L40.8164062,6.4921875 C39.9882812,5.5546875 38.9023438,5.0859375 37.5585938,5.0859375 C36.0351562,5.0859375 34.8203125,5.67773438 33.9140625,6.86132812 C33.0078125,8.04492188 32.5546875,9.61328125 32.5546875,11.5664062 C32.5546875,13.6210938 33.0136719,15.2460938 33.9316406,16.4414062 C34.8496094,17.6367188 36.0507812,18.234375 37.5351562,18.234375 Z M38.2617188,15.9140625 C37.3476562,15.9140625 36.6425781,15.5527344 36.1464844,14.8300781 C35.6503906,14.1074219 35.4023438,13.1015625 35.4023438,11.8125 C35.4023438,10.34375 35.6523438,9.24414062 36.1523438,8.51367188 C36.6523438,7.78320312 37.3632812,7.41796875 38.2851562,7.41796875 C39.4492188,7.41796875 40.2929688,7.92578125 40.8164062,8.94140625 L40.8164062,8.94140625 L40.8164062,14.3554688 C40.2773438,15.3945312 39.4257812,15.9140625 38.2617188,15.9140625 Z M50.5546875,18.234375 C51.8671875,18.234375 52.9765625,17.7617188 53.8828125,16.8164062 C53.9765625,17.3632812 54.0859375,17.7578125 54.2109375,18 L54.2109375,18 L57.1171875,18 L57.1171875,17.8007812 C56.796875,17.1210938 56.6367188,16.2109375 56.6367188,15.0703125 L56.6367188,15.0703125 L56.6367188,9.3515625 C56.6132812,8 56.1601562,6.95117188 55.2773438,6.20507812 C54.3945312,5.45898438 53.2109375,5.0859375 51.7265625,5.0859375 C50.75,5.0859375 49.8652344,5.2578125 49.0722656,5.6015625 C48.2792969,5.9453125 47.6523438,6.41992188 47.1914062,7.02539062 C46.7304688,7.63085938 46.5,8.28125 46.5,8.9765625 L46.5,8.9765625 L49.3476562,8.9765625 C49.3476562,8.4765625 49.5546875,8.06445312 49.96875,7.74023438 C50.3828125,7.41601562 50.9140625,7.25390625 51.5625,7.25390625 C52.3125,7.25390625 52.8710938,7.45117188 53.2382812,7.84570312 C53.6054688,8.24023438 53.7890625,8.765625 53.7890625,9.421875 L53.7890625,9.421875 L53.7890625,10.2539062 L52.0429688,10.2539062 C50.1757812,10.2539062 48.7402344,10.6152344 47.7363281,11.3378906 C46.7324219,12.0605469 46.2304688,13.0976562 46.2304688,14.4492188 C46.2304688,15.5195312 46.6328125,16.4179688 47.4375,17.1445312 C48.2421875,17.8710938 49.28125,18.234375 50.5546875,18.234375 Z M51.0820312,15.9492188 C50.4726562,15.9492188 49.9863281,15.7871094 49.6230469,15.4628906 C49.2597656,15.1386719 49.078125,14.703125 49.078125,14.15625 C49.078125,13.484375 49.34375,12.9648438 49.875,12.5976562 C50.40625,12.2304688 51.1992188,12.046875 52.2539062,12.046875 L52.2539062,12.046875 L53.7890625,12.046875 L53.7890625,14.4375 C53.5390625,14.8984375 53.1660156,15.265625 52.6699219,15.5390625 C52.1738281,15.8125 51.6445312,15.9492188 51.0820312,15.9492188 Z" id="ojeda"></path>
                </g>
            </g>
        </g>
    </g>
</svg>