<?xml version="1.0" standalone="no"?>
<!DOCTYPE svg PUBLIC "-//W3C//DTD SVG 20010904//EN"
 "http://www.w3.org/TR/2001/REC-SVG-20010904/DTD/svg10.dtd">
<svg version="1.0" xmlns="http://www.w3.org/2000/svg"
 width="700.000000pt" height="700.000000pt" viewBox="0 0 700.000000 700.000000"
 preserveAspectRatio="xMidYMid meet">
<metadata>
Created by potrace 1.14, written by Peter Selinger 2001-2017
</metadata>
<g transform="translate(0.000000,700.000000) scale(0.100000,-0.100000)"
fill="#000000" stroke="none">
<path d="M3400 6933 c-24 -9 -422 -174 -455 -188 -32 -15 -110 -47 -240 -100
-71 -29 -382 -159 -600 -250 -177 -74 -1510 -627 -1650 -685 -242 -99 -271
-118 -302 -199 -16 -43 -17 -168 -17 -2036 l0 -1990 21 -40 c23 -44 53 -74 98
-99 26 -14 268 -113 1160 -476 132 -53 364 -148 515 -210 151 -62 363 -148
470 -191 107 -44 204 -84 215 -89 11 -5 182 -75 380 -156 198 -80 390 -159
427 -175 106 -46 134 -42 349 50 101 43 351 150 554 236 204 86 384 163 400
170 17 8 165 70 330 140 165 69 314 132 330 140 32 14 659 281 935 397 91 39
188 80 215 92 28 13 91 40 142 61 98 40 140 73 169 133 17 35 18 128 18 2012
l0 1975 -21 40 c-45 86 12 60 -1148 532 -115 47 -223 91 -240 98 -16 7 -104
43 -195 80 -91 37 -178 73 -195 80 -16 7 -259 106 -540 220 -526 214 -529 215
-630 258 -33 14 -107 44 -165 67 -58 23 -118 52 -135 64 -53 40 -144 58 -195
39z m229 -524 c302 -123 487 -199 1111 -454 333 -136 625 -256 650 -265 69
-27 491 -199 525 -215 17 -7 77 -32 135 -55 58 -24 108 -45 112 -49 4 -3 -381
-161 -855 -350 -474 -189 -875 -350 -892 -357 -88 -38 -843 -338 -862 -341
-13 -3 -127 38 -285 103 -144 59 -348 142 -453 184 -104 43 -374 153 -600 245
-771 315 -960 393 -1150 470 -104 42 -194 79 -199 82 -11 7 -8 8 379 168 379
157 510 211 650 270 55 23 210 88 345 144 135 55 454 188 710 295 256 107 474
195 484 195 11 1 99 -31 195 -70z m-2945 -1390 c56 -23 115 -47 131 -54 56
-23 179 -74 760 -311 319 -129 666 -271 770 -314 105 -43 264 -108 355 -145
91 -37 179 -73 195 -80 45 -19 76 -31 250 -102 88 -36 165 -69 170 -73 7 -6
10 -578 9 -1692 -1 -926 -2 -1686 -3 -1691 0 -4 -9 -3 -18 3 -10 5 -117 50
-238 99 -121 49 -420 171 -665 271 -245 100 -537 219 -650 265 -113 46 -360
147 -550 225 -190 78 -408 167 -485 198 -77 31 -142 58 -145 60 -10 7 -6 3382
4 3382 5 0 55 -18 110 -41z m5751 -1666 l0 -1657 -195 -82 c-107 -46 -215 -92
-240 -103 -25 -10 -227 -97 -450 -191 -506 -215 -866 -368 -905 -385 -16 -8
-149 -64 -295 -125 -290 -122 -389 -165 -435 -185 -55 -24 -154 -65 -159 -65
-2 0 -4 760 -4 1689 l1 1689 1336 536 c735 294 1338 535 1341 535 3 1 6 -745
5 -1656z"/>
</g>
</svg>
