<?xml version="1.0" standalone="no"?>
<!DOCTYPE svg PUBLIC "-//W3C//DTD SVG 20010904//EN"
 "http://www.w3.org/TR/2001/REC-SVG-20010904/DTD/svg10.dtd">
<svg version="1.0" xmlns="http://www.w3.org/2000/svg"
 width="736.000000pt" height="736.000000pt" viewBox="0 0 736.000000 736.000000"
 preserveAspectRatio="xMidYMid meet">
<metadata>
Created by potrace 1.14, written by Peter Selinger 2001-2017
</metadata>
<g transform="translate(0.000000,736.000000) scale(0.100000,-0.100000)"
fill="#000000" stroke="none">
<path d="M2713 7132 c2 -15 21 -79 41 -142 42 -132 41 -129 60 -195 8 -27 33
-108 56 -180 23 -71 43 -137 45 -145 2 -8 22 -73 45 -145 23 -71 43 -137 45
-145 1 -8 15 -52 29 -96 15 -45 29 -90 31 -100 2 -11 20 -71 40 -134 20 -63
54 -171 75 -240 21 -69 70 -228 110 -355 39 -126 73 -237 75 -245 2 -8 9 -28
15 -45 6 -16 14 -39 16 -49 2 -11 12 -47 23 -80 22 -69 65 -208 66 -216 2 -8
65 -212 75 -240 5 -14 25 -79 45 -145 20 -66 40 -131 45 -145 5 -14 20 -65 35
-115 14 -49 30 -101 35 -115 8 -24 56 -178 120 -390 28 -93 74 -242 85 -277 7
-23 19 -13 80 63 33 42 71 88 85 104 25 29 69 82 128 155 71 88 167 201 174
203 4 2 8 8 8 13 0 6 10 20 23 33 12 13 36 40 52 61 17 21 35 43 40 49 10 10
172 209 205 250 8 11 26 32 40 48 14 15 30 34 35 41 35 43 134 163 150 181 6
6 39 47 75 91 35 44 67 82 70 85 3 3 21 25 41 50 20 25 45 55 55 66 11 12 33
39 49 60 25 31 213 258 250 301 5 7 15 18 20 25 28 35 340 414 345 418 3 3 25
30 50 60 25 30 49 60 55 66 5 6 24 28 40 49 17 21 35 43 40 49 8 9 133 161
205 250 8 10 20 23 25 30 6 6 42 49 80 96 38 47 72 87 75 90 3 3 18 21 33 41
l28 37 -153 36 c-162 39 -386 92 -633 152 -82 19 -161 38 -175 41 -44 9 -55
11 -55 13 0 1 -11 3 -25 6 -14 2 -41 8 -60 13 -131 35 -275 70 -315 77 -16 3
-37 7 -45 10 -8 3 -26 8 -40 10 -14 3 -97 23 -185 44 -88 21 -209 50 -270 64
-60 15 -121 29 -135 33 -14 4 -32 7 -42 8 -9 1 -24 5 -34 9 -9 4 -33 9 -53 12
-20 3 -44 10 -53 15 -10 5 -18 7 -18 5 0 -3 -11 -1 -26 4 -14 6 -39 12 -57 15
-18 3 -57 12 -87 20 -30 8 -66 16 -80 19 -14 3 -34 7 -45 10 -143 36 -228 56
-249 60 -14 3 -29 7 -33 9 -5 3 -26 8 -48 11 -22 4 -48 9 -57 12 -9 3 -25 7
-35 9 -10 2 -74 18 -143 35 -69 17 -156 37 -194 45 -37 8 -71 17 -75 20 -4 2
-23 7 -42 10 -19 3 -70 15 -114 26 -44 12 -87 22 -95 24 -8 2 -35 8 -59 13
l-43 10 5 -26z"/>
<path d="M6410 3279 c-41 -23 -97 -54 -125 -69 -27 -15 -81 -44 -120 -65 -38
-21 -90 -49 -115 -63 -25 -13 -79 -42 -120 -64 -41 -22 -88 -48 -105 -58 -30
-17 -129 -71 -214 -117 -24 -12 -50 -28 -57 -34 -8 -6 -14 -8 -14 -4 0 5 -8 2
-17 -6 -22 -17 -42 -29 -153 -87 -47 -25 -119 -64 -160 -87 -41 -23 -111 -61
-155 -85 -44 -24 -100 -54 -125 -68 -25 -13 -74 -40 -110 -60 -36 -19 -83 -45
-105 -57 -22 -12 -80 -43 -130 -70 -49 -26 -103 -56 -120 -65 -38 -22 -95 -53
-210 -115 -49 -26 -124 -67 -165 -90 -41 -24 -110 -61 -153 -83 l-78 -41 53
-34 c29 -19 91 -56 137 -83 45 -27 99 -59 120 -72 20 -12 45 -27 56 -32 11 -6
32 -18 47 -28 29 -19 137 -84 153 -92 9 -5 498 -298 570 -342 17 -10 41 -23
55 -30 14 -7 27 -15 30 -18 3 -3 92 -57 198 -120 106 -63 209 -125 230 -138
20 -12 44 -25 52 -29 8 -4 17 -10 20 -13 3 -4 30 -21 60 -37 69 -38 171 -99
187 -113 7 -5 14 -10 17 -10 6 0 167 -96 182 -109 6 -4 20 -12 32 -15 12 -4
22 -12 22 -17 0 -5 5 -9 11 -9 6 0 79 -41 163 -92 83 -50 162 -98 176 -105 14
-8 61 -36 105 -63 44 -26 83 -46 86 -44 6 3 5 50 -6 284 -4 80 -8 190 -11 245
-15 383 -21 527 -30 705 -3 80 -7 182 -8 227 0 46 -3 83 -6 83 -3 0 -6 53 -6
118 -1 64 -5 178 -8 252 -11 239 -17 362 -21 485 -2 66 -6 167 -9 225 -11 206
-18 376 -18 413 0 20 -3 37 -7 37 -3 -1 -40 -19 -81 -41z"/>
<path d="M2900 3250 c-64 -17 -433 -109 -461 -114 -8 -2 -21 -6 -29 -9 -8 -4
-28 -9 -45 -11 -16 -2 -37 -6 -45 -9 -14 -6 -241 -63 -287 -73 -12 -2 -96 -23
-185 -45 -90 -22 -171 -42 -181 -44 -10 -2 -27 -7 -37 -10 -10 -3 -27 -8 -37
-10 -10 -2 -119 -29 -243 -60 -124 -31 -234 -58 -245 -61 -53 -11 -151 -37
-162 -43 -8 -4 28 -49 103 -126 168 -174 566 -585 659 -680 44 -45 177 -182
295 -304 423 -438 490 -506 491 -496 0 6 2 17 4 25 17 63 27 109 31 130 3 14
7 33 10 42 3 9 7 25 9 35 2 10 13 61 25 113 12 52 24 106 26 120 3 14 7 32 10
40 3 8 8 24 10 35 2 11 13 61 24 110 11 50 23 101 26 115 3 14 14 61 24 105
10 44 21 91 24 105 2 14 30 135 62 270 31 135 58 254 60 265 1 11 3 20 4 20 2
0 5 15 13 58 3 15 8 35 11 45 3 9 7 28 10 42 3 19 56 248 70 305 14 55 27 127
24 130 -1 1 -32 -5 -68 -15z"/>
</g>
</svg>
